HIERARCHY
ROOT Hips
{
	OFFSET 0.00000 0.00000 0.00000
	CHANNELS 6 Xposition Yposition Zposition Zrotation Yrotation Xrotation 
	JOINT LHipJoint
	{
		OFFSET 0 0 0
		CHANNELS 3 Zrotation Yrotation Xrotation
		JOINT LeftUpLeg
		{
			OFFSET 1.53794 -1.55850 0.93568
			CHANNELS 3 Zrotation Yrotation Xrotation
			JOINT LeftLeg
			{
				OFFSET 2.28545 -6.27922 0.00000
				CHANNELS 3 Zrotation Yrotation Xrotation
				JOINT LeftFoot
				{
					OFFSET 2.37329 -6.52057 0.00000
					CHANNELS 3 Zrotation Yrotation Xrotation
					JOINT LeftToeBase
					{
						OFFSET 0.14846 -0.40788 2.09160
						CHANNELS 3 Zrotation Yrotation Xrotation
						End Site
						{
							OFFSET 0.00000 -0.00000 1.07536
						}
					}
				}
			}
		}
	}
	JOINT RHipJoint
	{
		OFFSET 0 0 0
		CHANNELS 3 Zrotation Yrotation Xrotation
		JOINT RightUpLeg
		{
			OFFSET -1.78290 -1.55850 0.93568
			CHANNELS 3 Zrotation Yrotation Xrotation
			JOINT RightLeg
			{
				OFFSET -2.24144 -6.15831 0.00000
				CHANNELS 3 Zrotation Yrotation Xrotation
				JOINT RightFoot
				{
					OFFSET -2.35091 -6.45907 0.00000
					CHANNELS 3 Zrotation Yrotation Xrotation
					JOINT RightToeBase
					{
						OFFSET -0.14428 -0.39641 2.07944
						CHANNELS 3 Zrotation Yrotation Xrotation
						End Site
						{
							OFFSET -0.00000 -0.00000 1.06864
						}
					}
				}
			}
		}
	}
	JOINT LowerBack
	{
		OFFSET 0 0 0
		CHANNELS 3 Zrotation Yrotation Xrotation
		JOINT Spine
		{
			OFFSET -0.08841 2.11430 -0.15818
			CHANNELS 3 Zrotation Yrotation Xrotation
			JOINT Spine1
			{
				OFFSET -0.00033 2.12605 -0.08097
				CHANNELS 3 Zrotation Yrotation Xrotation
				JOINT Neck
				{
					OFFSET 0 0 0
					CHANNELS 3 Zrotation Yrotation Xrotation
					JOINT Neck1
					{
						OFFSET 0.04431 1.59447 0.43193
						CHANNELS 3 Zrotation Yrotation Xrotation
						JOINT Head
						{
							OFFSET 0.00455 1.62017 -0.58852
							CHANNELS 3 Zrotation Yrotation Xrotation
							End Site
							{
								OFFSET -0.00920 1.72955 -0.25850
							}
						}
					}
				}
				JOINT LeftShoulder
				{
					OFFSET 0 0 0
					CHANNELS 3 Zrotation Yrotation Xrotation
					JOINT LeftArm
					{
						OFFSET 2.86490 1.49927 -0.33774
						CHANNELS 3 Zrotation Yrotation Xrotation
						JOINT LeftForeArm
						{
							OFFSET 4.87408 -0.00000 0.00000
							CHANNELS 3 Zrotation Yrotation Xrotation
							JOINT LeftHand
							{
								OFFSET 2.76729 -0.00000 0.00000
								CHANNELS 3 Zrotation Yrotation Xrotation
								JOINT LeftFingerBase
								{
									OFFSET 0 0 0
									CHANNELS 3 Zrotation Yrotation Xrotation
									JOINT LeftHandIndex1
									{
										OFFSET 0.98922 -0.00000 0.00000
										CHANNELS 3 Zrotation Yrotation Xrotation
										End Site
										{
											OFFSET 0.79753 -0.00000 0.00000
										}
									}
								}
								JOINT LThumb
								{
									OFFSET 0 0 0
									CHANNELS 3 Zrotation Yrotation Xrotation
									End Site
									{
										OFFSET 0.80972 -0.00000 0.80972
									}
								}
							}
						}
					}
				}
				JOINT RightShoulder
				{
					OFFSET 0 0 0
					CHANNELS 3 Zrotation Yrotation Xrotation
					JOINT RightArm
					{
						OFFSET -2.94414 1.45463 -0.25291
						CHANNELS 3 Zrotation Yrotation Xrotation
						JOINT RightForeArm
						{
							OFFSET -4.71404 -0.00000 0.00000
							CHANNELS 3 Zrotation Yrotation Xrotation
							JOINT RightHand
							{
								OFFSET -2.83468 -0.00000 0.00000
								CHANNELS 3 Zrotation Yrotation Xrotation
								JOINT RightFingerBase
								{
									OFFSET 0 0 0
									CHANNELS 3 Zrotation Yrotation Xrotation
									JOINT RightHandIndex1
									{
										OFFSET -0.86820 -0.00000 0.00000
										CHANNELS 3 Zrotation Yrotation Xrotation
										End Site
										{
											OFFSET -0.69996 -0.00000 0.00000
										}
									}
								}
								JOINT RThumb
								{
									OFFSET 0 0 0
									CHANNELS 3 Zrotation Yrotation Xrotation
									End Site
									{
										OFFSET -0.71065 -0.00000 0.71065
									}
								}
							}
						}
					}
				}
			}
		}
	}
}
MOTION
Frames: 12
Frame Time: 0.166667
0.00 0.00 0.00 0 0 0 0 0 0 -21 0 0 0 0 0 0 0 0 0 0 0 0 0 0 21 0 0 0 0 0 0 0 0 0 0 0 0 0 0 0 0 0 0 0 0 0 0 -16 0 0 21 0 0 11 0 0 0 -8 0 0 0 0 0 0 0 0 0 0 0 0 0 0 0 0 0 0 0 0 8 0 0 0 0 0 0 0 0 0 0 0 0 0 0 0 0 0
0.00 0.00 0.00 178.2710 -2.1141 -171.0810 0.0000 0.0000 0.0000 -19.8958 -15.1029 -27.6815 3.6630 11.6979 34.6715 -0.4667 13.2191 1.0613 0.0783 -1.8052 -4.9676 0.0000 0.0000 0.0000 22.7369 -1.7726 1.7177 -7.2805 -15.5636 49.9272 -0.3661 -22.3949 18.3655 -0.4678 4.3868 -12.1676 -2.8330 4.3050 -2.3902 -2.0639 5.8183 0.6398 -0.3109 2.8600 1.9257 -2.3088 -3.3036 -35.7395 3.1492 -8.2801 40.9512 -0.6773 -3.4567 25.0783 0.0000 0.0000 0.0000 -64.9732 26.5249 63.6777 122.7182 -55.5410 -87.9106 -0.0000 -0.0000 16.6322 11.9361 3.4596 0.7309 -7.1250 0.0000 -0.0000 -11.9329 33.3389 3.4755 0.0000 0.0000 0.0000 79.6561 -16.0539 61.2319 -119.2139 56.5158 -85.0041 0.0000 0.0000 4.7187 -13.3097 -0.3473 0.0822 7.1250 -0.0000 -0.0000 10.4440 -30.2468 3.8181
0.00 0.00 0.00 174.5000 -1.8425 -172.6810 0.0000 0.0000 0.0000 -26.1446 -13.0509 -20.6204 4.5211 12.8232 38.7104 -1.0868 18.0913 -7.5677 0.1092 -2.1303 -5.8658 0.0000 0.0000 0.0000 16.9824 -0.8258 -7.5565 -12.6473 -18.6511 68.0265 0.5164 -20.2762 9.5886 -0.6814 5.2779 -14.7028 -7.3284 2.9112 -0.2873 -2.7724 3.8198 1.5129 1.2796 1.7497 1.4296 -1.9446 -2.5099 -34.7581 4.0383 -7.1206 39.5472 0.2238 -2.8654 22.6983 -0.0000 -0.0000 0.0000 -70.6394 19.8033 63.0505 116.8142 -57.1008 -82.9957 -0.0000 -0.0000 17.4162 13.5526 4.0182 0.9677 -7.1250 0.0000 -0.0000 -10.7124 33.9626 2.9440 -0.0000 -0.0000 0.0000 82.3844 -23.8767 52.9959 -104.2131 59.2228 -72.2768 0.0000 0.0000 6.0257 -15.0356 -2.7784 0.7460 7.1250 -0.0000 -0.0000 9.3558 -32.7562 2.8386
0.00 0.00 0.00 172.6060 -2.2580 -169.9720 0.0000 0.0000 0.0000 -30.0517 -6.5875 -1.9725 2.6771 10.1530 29.4735 -0.7389 16.0541 0.1384 0.3521 -3.8125 -10.5499 0.0000 0.0000 0.0000 10.3789 9.0377 -38.4573 -14.4711 -19.2507 73.6382 1.4076 -20.4549 -8.6640 -0.8014 5.7136 -15.9558 -9.7703 -3.2682 0.5428 -1.9512 -4.5204 1.3039 3.3594 -2.4443 1.6369 4.2684 1.1061 -34.1301 -0.6805 0.9586 37.2179 -0.6393 1.3867 20.5336 -0.0000 -0.0000 0.0000 -80.3825 4.8198 60.8181 124.4441 -55.0045 -89.3291 -0.0000 -0.0000 19.3193 16.2617 5.1115 1.4887 -7.1250 0.0000 -0.0000 -8.6519 35.1953 2.1034 -0.0000 -0.0000 0.0000 78.7658 -42.4088 37.4550 -91.6079 59.9902 -61.3924 0.0000 0.0000 0.8829 -15.3416 -1.8928 0.5192 7.1250 -0.0000 -0.0000 9.0109 -31.8590 2.9288
0.00 0.00 0.00 172.9840 -2.5023 -168.2750 0.0000 0.0000 0.0000 -29.0495 -3.2038 4.8493 1.2537 7.0986 20.0077 0.6667 11.3536 15.5155 0.1975 -2.8620 -7.8948 0.0000 0.0000 0.0000 9.1874 12.4541 -41.2482 -8.7328 -16.6327 55.1614 1.4663 -20.8427 -8.5273 -1.0131 6.4041 -17.9614 -9.1173 -5.4769 -0.7978 -0.8484 -7.2747 0.6428 3.9193 -3.7788 2.1278 6.7961 3.5963 -33.0802 -3.8906 4.8226 36.5725 -1.6822 2.6618 20.2485 0.0000 -0.0000 0.0000 -77.8063 4.2828 61.6289 129.4737 -53.2056 -93.4049 -0.0000 -0.0000 20.2921 16.3111 4.9084 1.4343 -7.1250 0.0000 -0.0000 -8.5848 34.9887 2.1304 0.0000 -0.0000 0.0000 75.3432 -46.6068 36.6157 -97.4472 59.7894 -66.4449 0.0000 -0.0000 -0.0925 -13.7574 -1.5157 0.3711 7.1250 -0.0000 -0.0000 10.2246 -31.4376 3.4391
0.00 0.00 0.00 173.8110 -2.1829 -166.2430 0.0000 0.0000 0.0000 -27.5652 -0.2042 10.5155 0.4333 4.2242 11.7084 3.1899 11.6091 32.2722 0.0019 0.2781 0.7642 0.0000 0.0000 0.0000 7.6588 16.6161 -40.0471 -3.6569 -11.6893 34.6414 1.3969 -20.6198 -4.3492 -1.4169 7.5280 -21.2894 -7.5359 -6.7928 -3.3302 0.2354 -8.8175 -0.1435 3.8109 -4.5140 2.8701 8.7885 5.2683 -32.0429 -6.4683 7.5465 35.9875 -2.5914 3.5904 20.1714 0.0000 -0.0000 0.0000 -74.0825 5.4810 62.7715 133.2771 -51.5851 -96.4189 -0.0000 -0.0000 20.6246 14.3673 3.6467 0.9334 -7.1250 0.0000 -0.0000 -10.0027 33.6179 2.8284 0.0000 -0.0000 0.0000 72.6637 -48.9542 36.2183 -102.3149 59.4191 -70.6442 0.0000 -0.0000 -0.5168 -12.9287 -1.2343 0.2833 7.1250 -0.0000 -0.0000 10.8448 -31.1348 3.7345
0.00 0.00 0.00 173.3910 -1.5143 -166.7370 0.0000 0.0000 0.0000 -28.6841 -1.2773 9.1057 2.3067 9.4777 27.3013 4.0080 10.5259 36.3698 0.1051 2.0903 5.7553 0.0000 0.0000 0.0000 7.8911 17.0241 -36.7375 -2.2026 -9.2758 26.6621 1.7839 -25.6288 2.8958 -5.0539 13.4442 -41.0550 -7.1736 -6.8688 -4.6136 0.2290 -8.8226 -0.0500 3.4405 -4.5308 3.6293 10.3926 6.3968 -33.2724 -7.6310 8.9548 36.7510 -3.0865 4.1767 21.4070 0.0000 -0.0000 0.0000 -71.3677 9.8782 63.1445 135.5270 -50.5077 -98.1687 -0.0000 -0.0000 20.0929 10.5702 0.4882 0.0911 -7.1250 0.0000 -0.0000 -12.5949 30.3405 4.6077 0.0000 -0.0000 0.0000 71.3904 -46.9174 36.7224 -103.0671 59.3449 -71.2915 0.0000 0.0000 0.5311 -10.7990 -0.4118 0.0785 7.1250 -0.0000 -0.0000 12.4073 -30.2688 4.5578
0.00 0.00 0.00 174.2620 0.5834 -169.7720 0.0000 0.0000 0.0000 -28.1347 -0.0730 4.6768 6.1896 14.6096 45.7381 2.6027 11.0076 29.0626 0.0294 1.1068 3.0428 0.0000 0.0000 0.0000 12.4453 15.1214 -32.5169 -3.7007 -11.7511 34.8572 0.6648 -14.3040 -4.1824 -2.0929 9.0570 -25.9739 -6.9703 -5.1875 -2.4026 0.1187 -6.6692 0.5575 3.6366 -3.4184 2.7312 8.2719 4.8612 -32.2743 -6.5804 7.6333 37.1896 -2.5455 3.6184 20.9918 -0.0000 -0.0000 0.0000 -73.1123 14.9353 61.7974 132.9927 -51.7148 -96.1958 -0.0000 -0.0000 21.4553 10.9707 0.4301 0.0834 -7.1250 0.0000 -0.0000 -12.2762 30.2902 4.5011 -0.0000 -0.0000 0.0000 71.6166 -41.4250 38.8740 -97.4646 59.7884 -66.4599 0.0000 0.0000 1.3292 -11.3134 0.0634 -0.0127 7.1250 -0.0000 -0.0000 11.9490 -29.8042 4.5182
0.00 0.00 0.00 176.7390 2.8373 -172.2430 0.0000 0.0000 0.0000 -24.6995 1.1810 -2.2774 11.3594 18.1065 63.9433 1.7365 12.2514 23.8794 0.0021 -0.2979 -0.8184 0.0000 0.0000 0.0000 17.7913 14.4431 -26.7094 -5.4257 -13.8477 42.6309 0.3394 -12.7956 -12.8639 -1.2934 7.2057 -20.3263 -4.9173 -3.0148 -0.0213 0.4477 -3.9576 1.4683 3.1316 -2.0424 1.8904 7.4978 4.1329 -32.7423 -6.5064 6.7420 36.8315 -2.6098 3.1517 20.7195 -0.0000 0.0000 0.0000 -76.2996 19.5158 57.8173 124.9015 -54.8557 -89.7035 -0.0000 -0.0000 21.8919 11.9812 2.4912 0.5285 -7.1250 0.0000 -0.0000 -11.7571 32.3719 3.7028 -0.0000 0.0000 0.0000 73.4443 -31.8013 42.1508 -90.3550 59.9995 -60.3074 0.0000 0.0000 2.6040 -11.9227 -0.8676 0.1832 7.1250 -0.0000 -0.0000 11.5890 -30.7453 4.1105
0.00 0.00 0.00 179.5760 2.4619 -172.7680 0.0000 0.0000 0.0000 -19.3303 -3.4420 -17.1886 17.7583 19.8791 83.4329 0.1370 17.1546 13.3437 0.0079 -0.5739 -1.5770 0.0000 0.0000 0.0000 23.5148 11.0264 -16.4060 -5.4258 -13.8478 42.6312 0.3402 -15.7193 -18.4406 -2.0567 8.9832 -25.7429 -1.7020 -0.4661 1.6644 0.8282 -0.5840 2.0714 1.8065 -0.2974 1.2161 6.0232 2.3986 -34.2479 -5.6800 4.3353 36.9700 -2.5910 2.1265 20.8175 -0.0000 0.0000 0.0000 -77.9530 24.5372 53.2838 111.9520 -58.0985 -78.8897 -0.0000 -0.0000 16.8280 11.3810 9.0008 1.8037 -7.1250 0.0000 -0.0000 -13.3966 38.8214 2.0832 -0.0000 0.0000 0.0000 79.6012 -16.8781 45.9834 -88.8365 59.9949 -58.9924 0.0000 0.0000 7.4444 -13.4938 -1.2042 0.2889 7.1250 -0.0000 -0.0000 10.3964 -31.1164 3.5801
0.00 0.00 0.00 180.2100 1.1784 -170.2520 0.0000 0.0000 0.0000 -15.5736 -12.5469 -34.8659 14.7729 19.3319 74.5517 -1.1480 21.5535 3.7700 0.0150 -0.7905 -2.1726 0.0000 0.0000 0.0000 25.3954 5.5078 -2.3831 -3.0867 -10.8340 31.7222 0.6006 -13.7021 -3.0966 -3.0361 10.7532 -31.4520 -0.9824 3.5852 -0.0032 -0.6981 4.8013 0.7945 -0.1337 2.4008 0.7948 1.2373 -0.4410 -34.7963 1.1001 -4.1139 39.1678 -1.0152 -1.6855 22.0086 0.0000 -0.0000 0.0000 -68.5749 33.9807 56.6383 122.5540 -55.5900 -87.7752 -0.0000 -0.0000 17.2021 11.3168 3.1139 0.6228 -7.1250 0.0000 -0.0000 -12.3763 32.9715 3.7224 0.0000 -0.0000 0.0000 85.3403 -6.4244 53.8058 -107.8121 58.7666 -75.3618 0.0000 0.0000 6.5645 -12.0550 -1.4159 0.3024 7.1250 -0.0000 -0.0000 11.5546 -31.2974 3.9417
0.00 0.00 0.00 179.0220 -0.5610 -168.7010 0.0000 0.0000 0.0000 -15.6436 -17.1498 -36.5516 8.8200 16.6905 55.4657 -0.7955 19.0286 4.7238 0.0276 -1.0734 -2.9509 0.0000 0.0000 0.0000 24.1106 2.4612 4.2826 -1.6878 -8.1832 23.2718 -0.2644 -14.8630 13.1780 -2.3316 9.5251 -27.4522 -2.2200 4.7007 -1.8714 -1.9333 6.3027 0.0664 -0.5725 3.1259 1.0913 -0.3718 -2.3835 -34.5269 3.4285 -7.4397 39.1304 -0.4406 -2.7871 22.2006 -0.0000 0.0000 0.0000 -62.7263 36.8721 60.2620 127.5996 -53.9189 -91.8972 -0.0000 -0.0000 17.8421 11.0336 2.6682 0.5201 -7.1250 0.0000 -0.0000 -12.5351 32.5182 3.9127 -0.0000 0.0000 0.0000 84.2976 -5.7320 58.0058 -117.9650 56.8283 -83.9605 0.0000 0.0000 6.1077 -11.1242 -0.6744 0.1326 7.1250 -0.0000 -0.0000 12.1880 -30.5364 4.3940
